<?xml version="1.0" encoding="UTF-8"?><svg id="Layer_2" xmlns="http://www.w3.org/2000/svg" xmlns:xlink="http://www.w3.org/1999/xlink" viewBox="0 0 255.8 36"><defs><style>.cls-1,.cls-2,.cls-3,.cls-4,.cls-5,.cls-6,.cls-7,.cls-8,.cls-9,.cls-10,.cls-11,.cls-12,.cls-13,.cls-14,.cls-15,.cls-16,.cls-17,.cls-18,.cls-19,.cls-20,.cls-21,.cls-22,.cls-23,.cls-24,.cls-25,.cls-26,.cls-27,.cls-28,.cls-29,.cls-30,.cls-31,.cls-32,.cls-33,.cls-34,.cls-35,.cls-36,.cls-37,.cls-38,.cls-39,.cls-40,.cls-41,.cls-42,.cls-43,.cls-44,.cls-45,.cls-46,.cls-47,.cls-48,.cls-49,.cls-50,.cls-51,.cls-52,.cls-53,.cls-54,.cls-55,.cls-56,.cls-57,.cls-58,.cls-59,.cls-60,.cls-61,.cls-62,.cls-63,.cls-64,.cls-65,.cls-66,.cls-67,.cls-68,.cls-69,.cls-70,.cls-71,.cls-72,.cls-73,.cls-74,.cls-75,.cls-76,.cls-77,.cls-78,.cls-79,.cls-80,.cls-81,.cls-82,.cls-83,.cls-84,.cls-85,.cls-86,.cls-87,.cls-88,.cls-89,.cls-90,.cls-91,.cls-92,.cls-93,.cls-94,.cls-95,.cls-96,.cls-97,.cls-98,.cls-99,.cls-100,.cls-101,.cls-102,.cls-103,.cls-104,.cls-105,.cls-106,.cls-107,.cls-108,.cls-109,.cls-110,.cls-111,.cls-112,.cls-113,.cls-114,.cls-115,.cls-116,.cls-117,.cls-118,.cls-119,.cls-120,.cls-121,.cls-122,.cls-123,.cls-124,.cls-125,.cls-126,.cls-127,.cls-128,.cls-129,.cls-130,.cls-131,.cls-132,.cls-133{fill:none;}.cls-134{clip-path:url(#clippath);}.cls-135{clip-path:url(#clippath-23374);}.cls-136{clip-path:url(#clippath-25883);}.cls-137{clip-path:url(#clippath-20865);}.cls-138{clip-path:url(#clippath-28392);}.cls-139{clip-path:url(#clippath-30901);}.cls-140{clip-path:url(#clippath-10829);}.cls-141{clip-path:url(#clippath-18356);}.cls-142{clip-path:url(#clippath-15847);}.cls-143{clip-path:url(#clippath-13338);}.cls-144{fill:#f79e1b;}.cls-145{fill:#0071ce;}.cls-146{fill:#eb001b;}.cls-147{fill:#fff;}.cls-148{fill:#ee7623;}.cls-149{fill:#fcb316;}.cls-150{fill:#ff5f00;}.cls-151{fill:#231f20;}.cls-152{fill:#10357f;}.cls-153{clip-path:url(#clippath-1);}.cls-2{clip-path:url(#clippath-3300);}.cls-3{clip-path:url(#clippath-3301);}.cls-4{clip-path:url(#clippath-3291);}.cls-5{clip-path:url(#clippath-3293);}.cls-6{clip-path:url(#clippath-3296);}.cls-7{clip-path:url(#clippath-3298);}.cls-8{clip-path:url(#clippath-3299);}.cls-9{clip-path:url(#clippath-3297);}.cls-10{clip-path:url(#clippath-3292);}.cls-11{clip-path:url(#clippath-3295);}.cls-12{clip-path:url(#clippath-3294);}.cls-13{clip-path:url(#clippath-8309);}.cls-14{clip-path:url(#clippath-5800);}.cls-15{clip-path:url(#clippath-5809);}.cls-16{clip-path:url(#clippath-5803);}.cls-17{clip-path:url(#clippath-5801);}.cls-18{clip-path:url(#clippath-5802);}.cls-19{clip-path:url(#clippath-5804);}.cls-20{clip-path:url(#clippath-5806);}.cls-21{clip-path:url(#clippath-5808);}.cls-22{clip-path:url(#clippath-5807);}.cls-23{clip-path:url(#clippath-5805);}.cls-24{clip-path:url(#clippath-5810);}.cls-25{clip-path:url(#clippath-8310);}.cls-26{clip-path:url(#clippath-8311);}.cls-27{clip-path:url(#clippath-8315);}.cls-28{clip-path:url(#clippath-8314);}.cls-29{clip-path:url(#clippath-8313);}.cls-30{clip-path:url(#clippath-8316);}.cls-31{clip-path:url(#clippath-8312);}.cls-32{clip-path:url(#clippath-8317);}.cls-33{clip-path:url(#clippath-8318);}.cls-34{clip-path:url(#clippath-8319);}.cls-154{clip-path:url(#clippath-5811);}.cls-155{clip-path:url(#clippath-8320);}.cls-156{clip-path:url(#clippath-3302);}.cls-35{clip-path:url(#clippath-23372);}.cls-36{clip-path:url(#clippath-23371);}.cls-37{clip-path:url(#clippath-23373);}.cls-38{clip-path:url(#clippath-23370);}.cls-39{clip-path:url(#clippath-23369);}.cls-40{clip-path:url(#clippath-23365);}.cls-41{clip-path:url(#clippath-23367);}.cls-42{clip-path:url(#clippath-23368);}.cls-43{clip-path:url(#clippath-23366);}.cls-44{clip-path:url(#clippath-23364);}.cls-45{clip-path:url(#clippath-23363);}.cls-46{clip-path:url(#clippath-25879);}.cls-47{clip-path:url(#clippath-25876);}.cls-48{clip-path:url(#clippath-25878);}.cls-49{clip-path:url(#clippath-25877);}.cls-50{clip-path:url(#clippath-25875);}.cls-51{clip-path:url(#clippath-25874);}.cls-52{clip-path:url(#clippath-25873);}.cls-53{clip-path:url(#clippath-25872);}.cls-54{clip-path:url(#clippath-25881);}.cls-55{clip-path:url(#clippath-25880);}.cls-56{clip-path:url(#clippath-25882);}.cls-57{clip-path:url(#clippath-20859);}.cls-58{clip-path:url(#clippath-20855);}.cls-59{clip-path:url(#clippath-20858);}.cls-60{clip-path:url(#clippath-20857);}.cls-61{clip-path:url(#clippath-20856);}.cls-62{clip-path:url(#clippath-20854);}.cls-63{clip-path:url(#clippath-20864);}.cls-64{clip-path:url(#clippath-20861);}.cls-65{clip-path:url(#clippath-20862);}.cls-66{clip-path:url(#clippath-20860);}.cls-67{clip-path:url(#clippath-20863);}.cls-68{clip-path:url(#clippath-30892);}.cls-69{clip-path:url(#clippath-30897);}.cls-70{clip-path:url(#clippath-30898);}.cls-71{clip-path:url(#clippath-30896);}.cls-72{clip-path:url(#clippath-30895);}.cls-73{clip-path:url(#clippath-30891);}.cls-74{clip-path:url(#clippath-30893);}.cls-75{clip-path:url(#clippath-30899);}.cls-76{clip-path:url(#clippath-30894);}.cls-77{clip-path:url(#clippath-30890);}.cls-78{clip-path:url(#clippath-30900);}.cls-79{clip-path:url(#clippath-28389);}.cls-80{clip-path:url(#clippath-28384);}.cls-81{clip-path:url(#clippath-28383);}.cls-82{clip-path:url(#clippath-28391);}.cls-83{clip-path:url(#clippath-28390);}.cls-84{clip-path:url(#clippath-28387);}.cls-85{clip-path:url(#clippath-28382);}.cls-86{clip-path:url(#clippath-28381);}.cls-87{clip-path:url(#clippath-28388);}.cls-88{clip-path:url(#clippath-28386);}.cls-89{clip-path:url(#clippath-28385);}.cls-90{clip-path:url(#clippath-10819);}.cls-91{clip-path:url(#clippath-10818);}.cls-92{clip-path:url(#clippath-10821);}.cls-93{clip-path:url(#clippath-10824);}.cls-94{clip-path:url(#clippath-10822);}.cls-95{clip-path:url(#clippath-10823);}.cls-96{clip-path:url(#clippath-10820);}.cls-97{clip-path:url(#clippath-10825);}.cls-98{clip-path:url(#clippath-10828);}.cls-99{clip-path:url(#clippath-10826);}.cls-100{clip-path:url(#clippath-10827);}.cls-101{clip-path:url(#clippath-18352);}.cls-102{clip-path:url(#clippath-18354);}.cls-103{clip-path:url(#clippath-18351);}.cls-104{clip-path:url(#clippath-18353);}.cls-105{clip-path:url(#clippath-18350);}.cls-106{clip-path:url(#clippath-18355);}.cls-107{clip-path:url(#clippath-18345);}.cls-108{clip-path:url(#clippath-18349);}.cls-109{clip-path:url(#clippath-18346);}.cls-110{clip-path:url(#clippath-18348);}.cls-111{clip-path:url(#clippath-18347);}.cls-112{clip-path:url(#clippath-15843);}.cls-113{clip-path:url(#clippath-15840);}.cls-114{clip-path:url(#clippath-15845);}.cls-115{clip-path:url(#clippath-15846);}.cls-116{clip-path:url(#clippath-15842);}.cls-117{clip-path:url(#clippath-15841);}.cls-118{clip-path:url(#clippath-15844);}.cls-119{clip-path:url(#clippath-15838);}.cls-120{clip-path:url(#clippath-15839);}.cls-121{clip-path:url(#clippath-15836);}.cls-122{clip-path:url(#clippath-15837);}.cls-123{clip-path:url(#clippath-13333);}.cls-124{clip-path:url(#clippath-13337);}.cls-125{clip-path:url(#clippath-13336);}.cls-126{clip-path:url(#clippath-13335);}.cls-127{clip-path:url(#clippath-13334);}.cls-128{clip-path:url(#clippath-13329);}.cls-129{clip-path:url(#clippath-13328);}.cls-130{clip-path:url(#clippath-13327);}.cls-131{clip-path:url(#clippath-13330);}.cls-132{clip-path:url(#clippath-13332);}.cls-133{clip-path:url(#clippath-13331);}.cls-157{opacity:0;}</style><clipPath id="clippath"><rect class="cls-1" x="203.2" y="1.2" width="52.6" height="33.6"/></clipPath><clipPath id="clippath-1"><rect class="cls-1" x="203.2" y="1.2" width="52.6" height="33.6"/></clipPath><clipPath id="clippath-3291"><rect class="cls-1" x="140.3" y="-86.8" width="179.8" height="232.7"/></clipPath><clipPath id="clippath-3292"><rect class="cls-4" x="140.3" y="-86.8" width="179.8" height="232.7"/></clipPath><clipPath id="clippath-3293"><rect class="cls-10" x="140.3" y="-86.8" width="179.8" height="232.7"/></clipPath><clipPath id="clippath-3294"><rect class="cls-5" x="140.3" y="-86.8" width="179.8" height="232.7"/></clipPath><clipPath id="clippath-3295"><rect class="cls-12" x="140.3" y="-86.8" width="179.8" height="232.7"/></clipPath><clipPath id="clippath-3296"><rect class="cls-11" x="140.3" y="-86.8" width="179.8" height="232.7"/></clipPath><clipPath id="clippath-3297"><rect class="cls-6" x="140.3" y="-86.8" width="179.8" height="232.7"/></clipPath><clipPath id="clippath-3298"><rect class="cls-9" x="140.3" y="-86.8" width="179.8" height="232.7"/></clipPath><clipPath id="clippath-3299"><rect class="cls-7" x="140.3" y="-86.8" width="179.8" height="232.7"/></clipPath><clipPath id="clippath-3300"><rect class="cls-8" x="140.3" y="-86.8" width="179.8" height="232.7"/></clipPath><clipPath id="clippath-3301"><rect class="cls-2" x="140.3" y="-86.8" width="179.8" height="232.7"/></clipPath><clipPath id="clippath-3302"><rect class="cls-3" x="140.3" y="-86.8" width="179.8" height="232.7"/></clipPath><clipPath id="clippath-5800"><rect class="cls-1" x="140.3" y="-86.8" width="179.8" height="232.7"/></clipPath><clipPath id="clippath-5801"><rect class="cls-14" x="140.3" y="-86.8" width="179.8" height="232.7"/></clipPath><clipPath id="clippath-5802"><rect class="cls-17" x="140.3" y="-86.8" width="179.8" height="232.7"/></clipPath><clipPath id="clippath-5803"><rect class="cls-18" x="140.3" y="-86.8" width="179.8" height="232.7"/></clipPath><clipPath id="clippath-5804"><rect class="cls-16" x="140.3" y="-86.8" width="179.8" height="232.7"/></clipPath><clipPath id="clippath-5805"><rect class="cls-19" x="140.3" y="-86.8" width="179.8" height="232.7"/></clipPath><clipPath id="clippath-5806"><rect class="cls-23" x="140.3" y="-86.8" width="179.8" height="232.7"/></clipPath><clipPath id="clippath-5807"><rect class="cls-20" x="140.3" y="-86.8" width="179.8" height="232.7"/></clipPath><clipPath id="clippath-5808"><rect class="cls-22" x="140.3" y="-86.8" width="179.8" height="232.7"/></clipPath><clipPath id="clippath-5809"><rect class="cls-21" x="140.3" y="-86.8" width="179.8" height="232.7"/></clipPath><clipPath id="clippath-5810"><rect class="cls-15" x="140.3" y="-86.8" width="179.8" height="232.7"/></clipPath><clipPath id="clippath-5811"><rect class="cls-24" x="140.3" y="-86.8" width="179.8" height="232.7"/></clipPath><clipPath id="clippath-8309"><rect class="cls-1" x="140.3" y="-86.8" width="179.8" height="232.7"/></clipPath><clipPath id="clippath-8310"><rect class="cls-13" x="140.3" y="-86.8" width="179.8" height="232.7"/></clipPath><clipPath id="clippath-8311"><rect class="cls-25" x="140.3" y="-86.8" width="179.8" height="232.7"/></clipPath><clipPath id="clippath-8312"><rect class="cls-26" x="140.3" y="-86.8" width="179.8" height="232.7"/></clipPath><clipPath id="clippath-8313"><rect class="cls-31" x="140.3" y="-86.8" width="179.8" height="232.7"/></clipPath><clipPath id="clippath-8314"><rect class="cls-29" x="140.3" y="-86.8" width="179.8" height="232.7"/></clipPath><clipPath id="clippath-8315"><rect class="cls-28" x="140.3" y="-86.8" width="179.8" height="232.7"/></clipPath><clipPath id="clippath-8316"><rect class="cls-27" x="140.3" y="-86.8" width="179.8" height="232.7"/></clipPath><clipPath id="clippath-8317"><rect class="cls-30" x="140.3" y="-86.8" width="179.8" height="232.7"/></clipPath><clipPath id="clippath-8318"><rect class="cls-32" x="140.3" y="-86.8" width="179.8" height="232.7"/></clipPath><clipPath id="clippath-8319"><rect class="cls-33" x="140.3" y="-86.8" width="179.8" height="232.7"/></clipPath><clipPath id="clippath-8320"><rect class="cls-34" x="140.3" y="-86.8" width="179.8" height="232.7"/></clipPath><clipPath id="clippath-10818"><rect class="cls-1" x="140.3" y="-86.8" width="179.8" height="232.7"/></clipPath><clipPath id="clippath-10819"><rect class="cls-91" x="140.3" y="-86.8" width="179.8" height="232.7"/></clipPath><clipPath id="clippath-10820"><rect class="cls-90" x="140.3" y="-86.8" width="179.8" height="232.7"/></clipPath><clipPath id="clippath-10821"><rect class="cls-96" x="140.3" y="-86.8" width="179.8" height="232.7"/></clipPath><clipPath id="clippath-10822"><rect class="cls-92" x="140.3" y="-86.8" width="179.8" height="232.7"/></clipPath><clipPath id="clippath-10823"><rect class="cls-94" x="140.3" y="-86.8" width="179.8" height="232.7"/></clipPath><clipPath id="clippath-10824"><rect class="cls-95" x="140.3" y="-86.8" width="179.8" height="232.7"/></clipPath><clipPath id="clippath-10825"><rect class="cls-93" x="140.3" y="-86.8" width="179.8" height="232.7"/></clipPath><clipPath id="clippath-10826"><rect class="cls-97" x="140.3" y="-86.8" width="179.8" height="232.7"/></clipPath><clipPath id="clippath-10827"><rect class="cls-99" x="140.3" y="-86.8" width="179.8" height="232.7"/></clipPath><clipPath id="clippath-10828"><rect class="cls-100" x="140.3" y="-86.8" width="179.8" height="232.7"/></clipPath><clipPath id="clippath-10829"><rect class="cls-98" x="140.3" y="-86.8" width="179.8" height="232.7"/></clipPath><clipPath id="clippath-13327"><rect class="cls-1" x="140.3" y="-86.8" width="179.8" height="232.7"/></clipPath><clipPath id="clippath-13328"><rect class="cls-130" x="140.3" y="-86.8" width="179.8" height="232.7"/></clipPath><clipPath id="clippath-13329"><rect class="cls-129" x="140.3" y="-86.8" width="179.8" height="232.7"/></clipPath><clipPath id="clippath-13330"><rect class="cls-128" x="140.3" y="-86.8" width="179.8" height="232.7"/></clipPath><clipPath id="clippath-13331"><rect class="cls-131" x="140.3" y="-86.8" width="179.8" height="232.7"/></clipPath><clipPath id="clippath-13332"><rect class="cls-133" x="140.3" y="-86.8" width="179.8" height="232.7"/></clipPath><clipPath id="clippath-13333"><rect class="cls-132" x="140.3" y="-86.8" width="179.8" height="232.7"/></clipPath><clipPath id="clippath-13334"><rect class="cls-123" x="140.3" y="-86.8" width="179.8" height="232.7"/></clipPath><clipPath id="clippath-13335"><rect class="cls-127" x="140.3" y="-86.8" width="179.8" height="232.7"/></clipPath><clipPath id="clippath-13336"><rect class="cls-126" x="140.3" y="-86.8" width="179.8" height="232.7"/></clipPath><clipPath id="clippath-13337"><rect class="cls-125" x="140.3" y="-86.8" width="179.8" height="232.7"/></clipPath><clipPath id="clippath-13338"><rect class="cls-124" x="140.3" y="-86.8" width="179.8" height="232.7"/></clipPath><clipPath id="clippath-15836"><rect class="cls-1" x="140.3" y="-86.8" width="179.8" height="232.7"/></clipPath><clipPath id="clippath-15837"><rect class="cls-121" x="140.3" y="-86.8" width="179.8" height="232.7"/></clipPath><clipPath id="clippath-15838"><rect class="cls-122" x="140.3" y="-86.8" width="179.8" height="232.7"/></clipPath><clipPath id="clippath-15839"><rect class="cls-119" x="140.3" y="-86.8" width="179.8" height="232.7"/></clipPath><clipPath id="clippath-15840"><rect class="cls-120" x="140.3" y="-86.8" width="179.8" height="232.7"/></clipPath><clipPath id="clippath-15841"><rect class="cls-113" x="140.3" y="-86.8" width="179.8" height="232.7"/></clipPath><clipPath id="clippath-15842"><rect class="cls-117" x="140.3" y="-86.8" width="179.8" height="232.7"/></clipPath><clipPath id="clippath-15843"><rect class="cls-116" x="140.3" y="-86.8" width="179.8" height="232.7"/></clipPath><clipPath id="clippath-15844"><rect class="cls-112" x="140.3" y="-86.8" width="179.8" height="232.7"/></clipPath><clipPath id="clippath-15845"><rect class="cls-118" x="140.3" y="-86.8" width="179.8" height="232.7"/></clipPath><clipPath id="clippath-15846"><rect class="cls-114" x="140.3" y="-86.8" width="179.8" height="232.7"/></clipPath><clipPath id="clippath-15847"><rect class="cls-115" x="140.3" y="-86.8" width="179.8" height="232.7"/></clipPath><clipPath id="clippath-18345"><rect class="cls-1" x="140.3" y="-86.8" width="179.8" height="232.7"/></clipPath><clipPath id="clippath-18346"><rect class="cls-107" x="140.3" y="-86.8" width="179.8" height="232.7"/></clipPath><clipPath id="clippath-18347"><rect class="cls-109" x="140.3" y="-86.8" width="179.8" height="232.7"/></clipPath><clipPath id="clippath-18348"><rect class="cls-111" x="140.3" y="-86.8" width="179.8" height="232.7"/></clipPath><clipPath id="clippath-18349"><rect class="cls-110" x="140.3" y="-86.8" width="179.8" height="232.7"/></clipPath><clipPath id="clippath-18350"><rect class="cls-108" x="140.3" y="-86.8" width="179.8" height="232.7"/></clipPath><clipPath id="clippath-18351"><rect class="cls-105" x="140.3" y="-86.8" width="179.8" height="232.7"/></clipPath><clipPath id="clippath-18352"><rect class="cls-103" x="140.3" y="-86.8" width="179.8" height="232.7"/></clipPath><clipPath id="clippath-18353"><rect class="cls-101" x="140.3" y="-86.8" width="179.8" height="232.7"/></clipPath><clipPath id="clippath-18354"><rect class="cls-104" x="140.3" y="-86.8" width="179.8" height="232.7"/></clipPath><clipPath id="clippath-18355"><rect class="cls-102" x="140.3" y="-86.8" width="179.8" height="232.7"/></clipPath><clipPath id="clippath-18356"><rect class="cls-106" x="140.3" y="-86.8" width="179.8" height="232.7"/></clipPath><clipPath id="clippath-20854"><rect class="cls-1" x="140.3" y="-86.8" width="179.8" height="232.7"/></clipPath><clipPath id="clippath-20855"><rect class="cls-62" x="140.3" y="-86.8" width="179.8" height="232.7"/></clipPath><clipPath id="clippath-20856"><rect class="cls-58" x="140.3" y="-86.8" width="179.8" height="232.7"/></clipPath><clipPath id="clippath-20857"><rect class="cls-61" x="140.3" y="-86.8" width="179.8" height="232.7"/></clipPath><clipPath id="clippath-20858"><rect class="cls-60" x="140.3" y="-86.8" width="179.8" height="232.7"/></clipPath><clipPath id="clippath-20859"><rect class="cls-59" x="140.3" y="-86.8" width="179.8" height="232.7"/></clipPath><clipPath id="clippath-20860"><rect class="cls-57" x="140.3" y="-86.8" width="179.8" height="232.7"/></clipPath><clipPath id="clippath-20861"><rect class="cls-66" x="140.3" y="-86.8" width="179.8" height="232.7"/></clipPath><clipPath id="clippath-20862"><rect class="cls-64" x="140.3" y="-86.8" width="179.8" height="232.7"/></clipPath><clipPath id="clippath-20863"><rect class="cls-65" x="140.3" y="-86.8" width="179.8" height="232.7"/></clipPath><clipPath id="clippath-20864"><rect class="cls-67" x="140.3" y="-86.8" width="179.8" height="232.7"/></clipPath><clipPath id="clippath-20865"><rect class="cls-63" x="140.3" y="-86.8" width="179.8" height="232.7"/></clipPath><clipPath id="clippath-23363"><rect class="cls-1" x="140.3" y="-86.8" width="179.8" height="232.7"/></clipPath><clipPath id="clippath-23364"><rect class="cls-45" x="140.3" y="-86.8" width="179.8" height="232.7"/></clipPath><clipPath id="clippath-23365"><rect class="cls-44" x="140.3" y="-86.8" width="179.8" height="232.7"/></clipPath><clipPath id="clippath-23366"><rect class="cls-40" x="140.3" y="-86.8" width="179.8" height="232.7"/></clipPath><clipPath id="clippath-23367"><rect class="cls-43" x="140.3" y="-86.8" width="179.8" height="232.7"/></clipPath><clipPath id="clippath-23368"><rect class="cls-41" x="140.3" y="-86.8" width="179.8" height="232.7"/></clipPath><clipPath id="clippath-23369"><rect class="cls-42" x="140.3" y="-86.8" width="179.8" height="232.7"/></clipPath><clipPath id="clippath-23370"><rect class="cls-39" x="140.3" y="-86.8" width="179.8" height="232.7"/></clipPath><clipPath id="clippath-23371"><rect class="cls-38" x="140.3" y="-86.8" width="179.8" height="232.7"/></clipPath><clipPath id="clippath-23372"><rect class="cls-36" x="140.3" y="-86.8" width="179.8" height="232.7"/></clipPath><clipPath id="clippath-23373"><rect class="cls-35" x="140.3" y="-86.8" width="179.8" height="232.7"/></clipPath><clipPath id="clippath-23374"><rect class="cls-37" x="140.3" y="-86.8" width="179.8" height="232.7"/></clipPath><clipPath id="clippath-25872"><rect class="cls-1" x="140.3" y="-86.8" width="179.8" height="232.7"/></clipPath><clipPath id="clippath-25873"><rect class="cls-53" x="140.3" y="-86.8" width="179.8" height="232.7"/></clipPath><clipPath id="clippath-25874"><rect class="cls-52" x="140.3" y="-86.8" width="179.8" height="232.7"/></clipPath><clipPath id="clippath-25875"><rect class="cls-51" x="140.3" y="-86.8" width="179.8" height="232.7"/></clipPath><clipPath id="clippath-25876"><rect class="cls-50" x="140.3" y="-86.8" width="179.8" height="232.7"/></clipPath><clipPath id="clippath-25877"><rect class="cls-47" x="140.3" y="-86.8" width="179.8" height="232.7"/></clipPath><clipPath id="clippath-25878"><rect class="cls-49" x="140.3" y="-86.8" width="179.8" height="232.7"/></clipPath><clipPath id="clippath-25879"><rect class="cls-48" x="140.3" y="-86.8" width="179.8" height="232.7"/></clipPath><clipPath id="clippath-25880"><rect class="cls-46" x="140.3" y="-86.8" width="179.8" height="232.7"/></clipPath><clipPath id="clippath-25881"><rect class="cls-55" x="140.3" y="-86.8" width="179.8" height="232.7"/></clipPath><clipPath id="clippath-25882"><rect class="cls-54" x="140.3" y="-86.8" width="179.8" height="232.7"/></clipPath><clipPath id="clippath-25883"><rect class="cls-56" x="140.3" y="-86.8" width="179.8" height="232.7"/></clipPath><clipPath id="clippath-28381"><rect class="cls-1" x="140.3" y="-86.8" width="179.8" height="232.7"/></clipPath><clipPath id="clippath-28382"><rect class="cls-86" x="140.3" y="-86.8" width="179.8" height="232.7"/></clipPath><clipPath id="clippath-28383"><rect class="cls-85" x="140.3" y="-86.8" width="179.8" height="232.7"/></clipPath><clipPath id="clippath-28384"><rect class="cls-81" x="140.3" y="-86.8" width="179.8" height="232.7"/></clipPath><clipPath id="clippath-28385"><rect class="cls-80" x="140.3" y="-86.8" width="179.8" height="232.7"/></clipPath><clipPath id="clippath-28386"><rect class="cls-89" x="140.3" y="-86.8" width="179.8" height="232.7"/></clipPath><clipPath id="clippath-28387"><rect class="cls-88" x="140.3" y="-86.8" width="179.8" height="232.7"/></clipPath><clipPath id="clippath-28388"><rect class="cls-84" x="140.3" y="-86.8" width="179.8" height="232.7"/></clipPath><clipPath id="clippath-28389"><rect class="cls-87" x="140.3" y="-86.8" width="179.8" height="232.7"/></clipPath><clipPath id="clippath-28390"><rect class="cls-79" x="140.3" y="-86.8" width="179.8" height="232.7"/></clipPath><clipPath id="clippath-28391"><rect class="cls-83" x="140.3" y="-86.8" width="179.8" height="232.7"/></clipPath><clipPath id="clippath-28392"><rect class="cls-82" x="140.3" y="-86.8" width="179.8" height="232.7"/></clipPath><clipPath id="clippath-30890"><rect class="cls-1" x="140.3" y="-86.8" width="179.8" height="232.7"/></clipPath><clipPath id="clippath-30891"><rect class="cls-77" x="140.3" y="-86.8" width="179.8" height="232.7"/></clipPath><clipPath id="clippath-30892"><rect class="cls-73" x="140.3" y="-86.8" width="179.8" height="232.7"/></clipPath><clipPath id="clippath-30893"><rect class="cls-68" x="140.3" y="-86.8" width="179.8" height="232.7"/></clipPath><clipPath id="clippath-30894"><rect class="cls-74" x="140.3" y="-86.8" width="179.8" height="232.7"/></clipPath><clipPath id="clippath-30895"><rect class="cls-76" x="140.3" y="-86.8" width="179.8" height="232.7"/></clipPath><clipPath id="clippath-30896"><rect class="cls-72" x="140.3" y="-86.8" width="179.8" height="232.7"/></clipPath><clipPath id="clippath-30897"><rect class="cls-71" x="140.3" y="-86.8" width="179.8" height="232.7"/></clipPath><clipPath id="clippath-30898"><rect class="cls-69" x="140.3" y="-86.8" width="179.8" height="232.7"/></clipPath><clipPath id="clippath-30899"><rect class="cls-70" x="140.3" y="-86.8" width="179.8" height="232.7"/></clipPath><clipPath id="clippath-30900"><rect class="cls-75" x="140.3" y="-86.8" width="179.8" height="232.7"/></clipPath><clipPath id="clippath-30901"><rect class="cls-78" x="140.3" y="-86.8" width="179.8" height="232.7"/></clipPath></defs><g id="Layer_1_1:1_"><g><g><rect class="cls-147" x="134.2" y=".6" width="54.8" height="34.8"/><rect class="cls-149" x="135.1" y="29.7" width="53" height="4.7"/><rect class="cls-152" x="135.1" y="1.5" width="53" height="4.7"/><path class="cls-152" d="M156.3,11.5l-5.5,13h-3.6l-2.7-10.4c-.2-.6-.3-.9-.8-1.1-.8-.4-2.2-.9-3.3-1.1l.1-.4h5.7c.7,0,1.4,.5,1.6,1.3l1.4,7.6,3.5-8.9s3.6,0,3.6,0Zm13.9,8.8c0-3.4-4.8-3.6-4.7-5.2,0-.5,.5-1,1.4-1.1,.5-.1,1.8-.1,3.3,.6l.6-2.8c-.8-.3-1.9-.6-3.2-.6-3.3,0-5.7,1.8-5.7,4.3,0,1.9,1.7,2.9,3,3.6,1.3,.6,1.8,1.1,1.8,1.6,0,.9-1,1.3-2,1.3-1.7,0-2.7-.5-3.5-.8l-.6,2.9c.8,.4,2.2,.7,3.8,.7,3.5-.1,5.8-1.8,5.8-4.5m8.9,4.2h3.1l-2.7-13h-2.9c-.7,0-1.2,.4-1.4,1l-5.1,12.1h3.5l.7-1.9h4.3l.5,1.8Zm-3.8-4.6l1.8-4.9,1,4.9h-2.8Zm-14.2-8.4l-2.8,13h-3.4l2.8-13h3.4Z"/></g><g id="Layer_1-2"><g class="cls-134"><rect class="cls-147" x="203.4" y="1.3" width="52.2" height="33.2"/></g><g class="cls-153"><g><g class="cls-156"><path class="cls-148" d="M255.4,19.8s-14.3,10.1-40.4,14.6h40.4v-14.6Z"/></g><g class="cls-154"><path class="cls-151" d="M255.6,1.2h-52.4V34.8h52.6V1.2h-.2Zm-.2,.3V34.3h-51.8V1.5h51.8"/></g><g class="cls-155"><path class="cls-151" d="M207.8,11.4h-2.1v7.6h2.2c1.2,0,2-.3,2.7-.9,.9-.7,1.4-1.8,1.4-2.9-.1-2.2-1.8-3.8-4.2-3.8m1.8,5.7c-.5,.4-1.1,.6-2,.6h-.4v-5h.4c1,0,1.5,.2,2,.6,.5,.5,.8,1.2,.8,1.9,0,.8-.3,1.5-.8,1.9"/></g><g class="cls-140"><rect class="cls-151" x="212.6" y="11.4" width="1.5" height="7.6"/></g><g class="cls-143"><path class="cls-151" d="M217.7,14.4c-.9-.3-1.2-.5-1.2-1s.5-.8,1.1-.8c.4,0,.8,.2,1.2,.6l.8-1c-.6-.6-1.4-.8-2.2-.8-1.3,0-2.4,.9-2.4,2.2,0,1,.5,1.6,1.9,2.1,.6,.2,.9,.3,1,.4,.3,.2,.4,.5,.4,.8,0,.6-.5,1.1-1.2,1.1s-1.3-.4-1.6-1l-1,.9c.7,1,1.5,1.4,2.6,1.4,1.5,0,2.6-1,2.6-2.5,.2-1.3-.3-1.8-2-2.4"/></g><g class="cls-142"><path class="cls-151" d="M220.4,15.2c0,2.2,1.8,4,4,4,.6,0,1.2-.1,1.9-.4v-1.8c-.6,.6-1.1,.8-1.8,.8-1.5,0-2.6-1.1-2.6-2.6s1.1-2.6,2.5-2.6c.7,0,1.2,.3,1.9,.9v-1.7c-.7-.3-1.2-.5-1.8-.5-2.3,0-4.1,1.7-4.1,3.9"/></g><g class="cls-141"><polygon class="cls-151" points="238 16.5 236 11.4 234.4 11.4 237.6 19.2 238.4 19.2 241.7 11.4 240.1 11.4 238 16.5"/></g><g class="cls-137"><polygon class="cls-151" points="242.3 19 246.5 19 246.5 17.8 243.8 17.8 243.8 15.7 246.4 15.7 246.4 14.4 243.8 14.4 243.8 12.7 246.5 12.7 246.5 11.4 242.3 11.4 242.3 19"/></g><g class="cls-135"><path class="cls-151" d="M252.4,13.7c0-1.4-1-2.2-2.7-2.2h-2.2v7.5h1.5v-3h.2l2.1,3.1h1.8l-2.4-3.2c1.1-.3,1.7-1.1,1.7-2.2m-3,1.2h-.4v-2.3h.5c.9,0,1.4,.4,1.4,1.1,0,.8-.5,1.2-1.5,1.2"/></g><g class="cls-136"><path class="cls-148" d="M234.8,15.2c0,2.2-1.8,4-4,4s-4-1.8-4-4,1.8-4,4-4,4,1.8,4,4"/></g><g class="cls-138"><path class="cls-151" d="M253.2,11.6c0-.1-.1-.2-.3-.2h-.2v.6h.2v-.3l.2,.3h.2l-.2-.3q.1,0,.1-.1m-.3,.1h0v-.2h0q.1,0,.1,.1s0,.1-.1,.1"/></g><g class="cls-139"><path class="cls-151" d="M253,11.1c-.3,0-.6,.3-.6,.6s.3,.6,.6,.6,.6-.3,.6-.6-.3-.6-.6-.6m0,1.1c-.3,0-.5-.2-.5-.5s.2-.5,.5-.5,.5,.2,.5,.5c-.1,.3-.3,.5-.5,.5"/></g></g></g></g><g><g class="cls-157"><rect class="cls-147" x="66.1" width="54.5" height="36"/></g><rect class="cls-150" x="86.1" y="6.3" width="14.4" height="23.5"/><path class="cls-146" d="M87.6,18.1c0-4.6,2.1-8.9,5.7-11.7-6.5-5.1-15.9-4-21,2.5s-4,15.9,2.5,21c5.4,4.3,13,4.3,18.5,0-3.6-2.9-5.7-7.3-5.7-11.8Z"/><path class="cls-144" d="M116,27.3v-.5h.2v-.1h-.5v.1h.2l.1,.5h0Zm1,0v-.6h-.1l-.2,.4-.2-.4h-.1v.6h.1v-.4l.2,.4h.1l.2-.4v.4h0Z"/><path class="cls-144" d="M117.5,18.1c0,8.2-6.7,14.9-14.9,14.9-3.3,0-6.6-1.1-9.2-3.2,6.5-5.1,7.6-14.5,2.5-21-.7-.9-1.6-1.8-2.5-2.5,6.5-5.1,15.9-4,21,2.5,1.9,2.6,3.1,5.9,3.1,9.3h0Z"/></g><g><g><path class="cls-145" d="M48.1,31.1l-2.4-2.6-2.4,2.6h-14.9v-12h-4.8l6-13.5h5.8l2.1,4.6V5.6h7.2l1.2,3.5,1.2-3.5h5.4V3.5c0-1.2-1-2.2-2.2-2.2H2.2C1,1.3,0,2.3,0,3.5v29.1c0,1.2,1,2.2,2.2,2.2H50.2c1.2,0,2.2-1,2.2-2.2v-1.5h-4.3Z"/><g><polygon class="cls-145" points="48.8 29.8 52.5 29.8 47.6 24.5 52.5 19.3 48.8 19.3 45.8 22.6 42.7 19.3 38.9 19.3 43.9 24.5 38.9 29.8 42.6 29.8 45.7 26.4 48.8 29.8"/><polygon class="cls-145" points="32.9 27.3 32.9 25.7 38.8 25.7 38.8 23.3 32.9 23.3 32.9 21.7 38.9 21.7 38.9 19.3 30 19.3 30 29.8 38.9 29.8 38.9 27.3 32.9 27.3"/><polygon class="cls-145" points="49.7 17.7 52.5 17.7 52.5 7.2 48.1 7.2 45.8 13.8 43.4 7.2 38.9 7.2 38.9 17.7 41.8 17.7 41.8 10.4 44.5 17.7 47 17.7 49.7 10.4 49.7 17.7"/><path class="cls-145" d="M34.3,7.2h-3.7l-4.6,10.5h3.2l.9-2.1h4.8l.9,2.1h3.2l-4.7-10.5Zm-3.3,6.1l1.4-3.4,1.4,3.4h-2.8Z"/></g></g><polygon class="cls-145" points="49.9 24.2 52.5 27.1 52.6 21.3 49.9 24.2"/></g></g></g></svg>