<?xml version="1.0" encoding="UTF-8"?><svg id="Layer_2" xmlns="http://www.w3.org/2000/svg" viewBox="0 0 336.76 32.16"><defs><style>.cls-1{fill:#fff;}.cls-2{fill:#c41220;}.cls-3{stroke:#c41220;stroke-miterlimit:10;stroke-width:2px;}</style></defs><g id="Layer_1-2"><g><rect class="cls-3" x="130.02" y="1" width="107.26" height="30.16"/><g><path class="cls-1" d="M15.27,25.06H4.28c-.28,0-.58-.03-.91-.1s-.64-.17-.96-.31-.62-.32-.91-.54-.54-.49-.77-.81-.4-.68-.53-1.1-.2-.89-.2-1.41V12.53c0-.28,.03-.58,.1-.91s.17-.64,.31-.96,.32-.62,.55-.91,.5-.54,.81-.77,.68-.4,1.1-.53,.88-.2,1.41-.2H15.27v3.05H4.28c-.4,0-.7,.11-.91,.32s-.32,.52-.32,.94v8.23c0,.39,.11,.69,.32,.91s.52,.32,.91,.32H15.27v3.05Z"/><path class="cls-1" d="M35.54,18.27c0,1.02-.18,1.96-.53,2.82s-.84,1.6-1.46,2.23-1.37,1.11-2.22,1.46-1.79,.52-2.79,.52h-4.12c-1.01,0-1.94-.17-2.8-.52s-1.6-.83-2.23-1.46-1.12-1.37-1.47-2.23-.53-1.8-.53-2.82v-3.21c0-1.02,.18-1.96,.53-2.82s.85-1.61,1.47-2.23,1.37-1.11,2.23-1.46,1.79-.53,2.8-.53h4.12c1.01,0,1.94,.18,2.79,.53s1.6,.84,2.22,1.46,1.11,1.36,1.46,2.23,.53,1.8,.53,2.82v3.21Zm-3.05-3.21c0-.6-.1-1.15-.29-1.63s-.46-.91-.81-1.25-.77-.62-1.25-.81-1.03-.29-1.61-.29h-4.12c-.59,0-1.13,.1-1.62,.29s-.91,.46-1.26,.81-.62,.77-.81,1.25-.29,1.03-.29,1.63v3.21c0,.6,.1,1.15,.29,1.63s.46,.91,.81,1.25,.77,.62,1.26,.81,1.03,.29,1.62,.29h4.1c.59,0,1.13-.1,1.62-.29s.91-.46,1.26-.81,.62-.77,.81-1.25,.29-1.03,.29-1.63v-3.21Z"/><path class="cls-1" d="M53.99,25.06h-13.9c-.22,0-.42-.04-.61-.12s-.35-.19-.49-.32-.24-.3-.32-.49-.12-.39-.12-.61V8.26h3.05v13.76h12.39v3.05Z"/><path class="cls-1" d="M71.66,25.06h-13.9c-.22,0-.42-.04-.61-.12s-.35-.19-.49-.32-.24-.3-.32-.49-.12-.39-.12-.61V8.26h3.05v13.76h12.39v3.05Z"/><path class="cls-1" d="M89.02,25.06h-10.99c-.42,0-.88-.07-1.38-.22s-.96-.39-1.39-.73-.78-.78-1.07-1.32-.43-1.21-.43-2V9.79c0-.21,.04-.41,.12-.6s.19-.35,.32-.49,.3-.25,.49-.33,.39-.12,.61-.12h13.72v3.05h-12.21v9.48c0,.4,.11,.7,.32,.91s.52,.32,.93,.32h10.97v3.05Zm-1.37-6.87h-9.62v-3.07h9.62v3.07Z"/><path class="cls-1" d="M106.9,25.06h-10.99c-.28,0-.58-.03-.91-.1s-.64-.17-.96-.31-.62-.32-.91-.54-.54-.49-.77-.81-.4-.68-.53-1.1-.2-.89-.2-1.41V12.53c0-.28,.03-.58,.1-.91s.17-.64,.31-.96,.32-.62,.55-.91,.5-.54,.81-.77,.68-.4,1.1-.53,.88-.2,1.41-.2h10.99v3.05h-10.99c-.4,0-.7,.11-.91,.32s-.32,.52-.32,.94v8.23c0,.39,.11,.69,.32,.91s.52,.32,.91,.32h10.99v3.05Z"/><path class="cls-1" d="M124.97,11.3h-6.71v13.76h-3.05V11.3h-6.73v-3.05h16.49v3.05Z"/></g><g><path class="cls-2" d="M150.98,11.3h-6.71v13.76h-3.05V11.3h-6.73v-3.05h16.49v3.05Z"/><path class="cls-2" d="M170.01,13.91c0,.7-.09,1.32-.26,1.86s-.4,1.03-.7,1.45-.63,.78-1.01,1.07-.78,.54-1.2,.73-.84,.33-1.27,.42-.83,.13-1.2,.13l6.36,5.5h-4.71l-6.35-5.5h-2.19v-3.05h6.89c.38-.03,.73-.11,1.05-.24s.59-.3,.82-.52,.41-.48,.53-.79,.19-.66,.19-1.06v-1.92c0-.17-.02-.3-.06-.39s-.1-.16-.16-.2-.14-.07-.21-.08-.14-.01-.21-.01h-10.05v13.76h-3.05V9.79c0-.21,.04-.41,.12-.6s.19-.35,.32-.49,.3-.25,.49-.33,.39-.12,.61-.12h11.57c.68,0,1.25,.12,1.72,.37s.85,.55,1.14,.93,.5,.77,.63,1.2,.19,.83,.19,1.21v1.95Z"/><path class="cls-2" d="M189.53,23.53c0,.22-.04,.42-.12,.61s-.19,.35-.33,.49-.3,.24-.49,.32-.39,.12-.6,.12h-6.87c-.65,0-1.3-.07-1.97-.21s-1.31-.36-1.93-.65-1.21-.67-1.75-1.12-1.03-.99-1.44-1.61-.73-1.33-.97-2.13-.35-1.69-.35-2.68V8.26h3.05v8.4c0,.86,.12,1.59,.36,2.18s.54,1.09,.91,1.49,.77,.71,1.21,.94,.85,.39,1.25,.5,.74,.18,1.04,.21,.5,.04,.59,.04h5.36V8.26h3.05v15.27Z"/><path class="cls-2" d="M212.63,25.06h-3.07V15.05l-5.4,9.5c-.13,.24-.32,.43-.56,.55s-.49,.19-.77,.19-.51-.06-.74-.19-.41-.31-.54-.55l-5.43-9.5v10.01h-3.05V9.56c0-.35,.1-.66,.31-.94s.48-.46,.81-.55c.16-.04,.33-.05,.49-.04s.32,.05,.47,.11,.29,.14,.42,.25,.23,.23,.32,.38l6.94,12.06,6.94-12.06c.18-.3,.43-.51,.74-.63s.65-.14,.99-.06c.33,.09,.6,.28,.81,.55s.32,.59,.32,.94v15.5Z"/><path class="cls-2" d="M232.92,15.29c0,.7-.09,1.32-.26,1.86s-.4,1.03-.7,1.45-.63,.78-1.01,1.07-.78,.54-1.2,.73-.84,.32-1.27,.41-.83,.13-1.2,.13h-6.89v-3.05h6.89c.39-.03,.74-.11,1.06-.24s.59-.3,.81-.52,.4-.48,.53-.79,.19-.66,.19-1.05v-1.38c-.04-.38-.12-.73-.25-1.05s-.29-.59-.51-.82-.47-.4-.78-.53-.66-.19-1.05-.19h-6.87c-.41,0-.71,.11-.93,.32s-.32,.52-.32,.91v12.53h-3.05V12.53c0-.78,.14-1.45,.43-1.99s.64-.99,1.07-1.32,.89-.58,1.39-.73,.96-.23,1.38-.23h6.89c.69,0,1.3,.09,1.85,.26s1.03,.41,1.45,.7,.77,.63,1.07,1.01,.54,.78,.73,1.2,.33,.84,.42,1.27,.13,.83,.13,1.2v1.38Z"/></g><g><path class="cls-1" d="M258.1,25.06h-10.99c-.28,0-.58-.03-.91-.1s-.64-.17-.96-.31-.62-.32-.91-.54-.54-.49-.77-.81-.4-.68-.53-1.1-.2-.89-.2-1.41V12.53c0-.28,.03-.58,.1-.91s.17-.64,.31-.96,.32-.62,.55-.91,.5-.54,.81-.77,.68-.4,1.1-.53,.88-.2,1.41-.2h10.99v3.05h-10.99c-.4,0-.7,.11-.91,.32s-.32,.52-.32,.94v8.23c0,.39,.11,.69,.32,.91s.52,.32,.91,.32h10.99v3.05Z"/><path class="cls-1" d="M277.47,25.06h-3.05v-4.12h-10.71v4.12h-3.05v-8.4c0-1.23,.21-2.36,.63-3.39s1.01-1.92,1.76-2.66,1.64-1.32,2.66-1.73,2.14-.62,3.35-.62h6.87c.21,0,.41,.04,.6,.12s.35,.19,.49,.33,.25,.3,.33,.49,.12,.39,.12,.6v15.27Zm-13.76-7.17h10.71v-6.59h-5.36c-.09,0-.29,.01-.59,.04s-.65,.1-1.04,.21-.81,.28-1.25,.5-.84,.54-1.21,.94-.67,.9-.91,1.49-.36,1.32-.36,2.17v1.23Z"/><path class="cls-1" d="M297.8,13.91c0,.7-.09,1.32-.26,1.86s-.4,1.03-.7,1.45-.63,.78-1.01,1.07-.78,.54-1.2,.73-.84,.33-1.27,.42-.83,.13-1.2,.13l6.36,5.5h-4.71l-6.35-5.5h-2.19v-3.05h6.89c.38-.03,.73-.11,1.05-.24s.59-.3,.82-.52,.41-.48,.53-.79,.19-.66,.19-1.06v-1.92c0-.17-.02-.3-.06-.39s-.1-.16-.16-.2-.14-.07-.21-.08-.14-.01-.21-.01h-10.05v13.76h-3.05V9.79c0-.21,.04-.41,.12-.6s.19-.35,.32-.49,.3-.25,.49-.33,.39-.12,.61-.12h11.57c.68,0,1.25,.12,1.72,.37s.85,.55,1.14,.93,.5,.77,.63,1.2,.19,.83,.19,1.21v1.95Z"/><path class="cls-1" d="M317.63,18.03c0,1.02-.18,1.96-.53,2.82s-.85,1.6-1.47,2.22-1.37,1.11-2.23,1.46-1.79,.53-2.8,.53h-8.23c-.22,0-.42-.04-.61-.12s-.35-.19-.49-.32-.24-.3-.32-.49-.12-.39-.12-.61V9.79c0-.21,.04-.41,.12-.6s.19-.35,.32-.49,.3-.25,.49-.33,.39-.12,.61-.12h8.23c1.01,0,1.94,.18,2.8,.53s1.6,.84,2.23,1.46,1.12,1.36,1.47,2.23,.53,1.8,.53,2.82v2.74Zm-3.05-2.74c0-.59-.1-1.14-.29-1.63s-.46-.91-.81-1.26-.77-.62-1.26-.81-1.03-.29-1.62-.29h-6.71v10.71h6.71c.59,0,1.13-.1,1.62-.29s.91-.46,1.26-.81,.62-.77,.81-1.25,.29-1.03,.29-1.63v-2.74Z"/><path class="cls-1" d="M336.76,20.12c0,.6-.08,1.14-.23,1.62s-.35,.9-.6,1.27-.54,.68-.88,.94-.68,.47-1.04,.63-.72,.29-1.1,.36-.72,.12-1.05,.12h-11.75v-3.05h11.75c.59,0,1.04-.17,1.37-.52s.49-.8,.49-1.38c0-.28-.04-.54-.13-.77s-.21-.44-.37-.61-.36-.3-.59-.4-.49-.14-.77-.14h-7.01c-.49,0-1.02-.09-1.59-.26s-1.1-.46-1.59-.85-.89-.9-1.22-1.54-.49-1.41-.49-2.32,.16-1.69,.49-2.31,.73-1.14,1.22-1.54,1.02-.68,1.59-.86,1.1-.26,1.59-.26h10.37v3.05h-10.37c-.58,0-1.03,.18-1.35,.53s-.49,.82-.49,1.39,.16,1.05,.49,1.39,.78,.51,1.35,.51h7.03c.33,0,.68,.05,1.04,.13s.73,.21,1.1,.38,.71,.39,1.04,.65,.62,.58,.87,.94,.46,.79,.6,1.27,.22,1.02,.22,1.62Z"/></g></g></g></svg>