<?xml version="1.0" encoding="UTF-8"?>
<svg xmlns="http://www.w3.org/2000/svg" xmlns:xlink="http://www.w3.org/1999/xlink" viewBox="0 0 128 128" width="128px" height="128px">
<g id="surface11077570">
<path style=" stroke:none;fill-rule:nonzero;fill:rgb(100%,100%,100%);fill-opacity:1;" d="M 16 22 L 16 64 C 16 64 24 70 36 70 C 36.472656 70 36.929688 69.976562 37.390625 69.957031 C 40.898438 85.394531 24 104 24 104 L 32 112 C 32 112 56 90 56 64 L 56 22 Z M 72 22 L 72 64 C 72 64 80 70 92 70 C 92.472656 70 92.929688 69.976562 93.390625 69.957031 C 96.898438 85.394531 80 104 80 104 L 88 112 C 88 112 112 90 112 64 L 112 22 Z M 72 22 "/>
</g>
</svg>
