<?xml version="1.0" encoding="UTF-8"?><svg id="Layer_2" xmlns="http://www.w3.org/2000/svg" viewBox="0 0 128.15 25.24"><defs><style>.cls-1{fill:#c41220;}</style></defs><g id="Layer_1-2"><path class="cls-1" d="M14.29,7.79c-3.2,.83-6.8,2.02-9.19,4.41-.86,.85-1.54,1.95-1.55,3.19-.01,1.31,.7,2.47,1.65,3.33,2.66,2.41,6.63,3.21,10.04,3.84,4.52,.84,9.11,1.28,13.7,1.56,9.55,.59,19.15,.88,28.72,1.03,9.59,.15,19.19,.09,28.78-.34,8.95-.4,18.1-.82,26.82-3.05,3.85-.98,7.86-2.26,11.05-4.71,2.25-1.73,4.84-4.72,3.48-7.75-.73-1.63-2.36-2.64-3.94-3.33-1.97-.86-4.08-1.43-6.16-1.96-4.42-1.12-8.93-1.81-13.46-2.32C94.82,.65,85.33,.19,75.88,.04c-9.58-.15-19.17,.09-28.73,.73-8.99,.6-18.02,1.44-26.85,3.31-4.21,.89-8.39,2.03-12.42,3.55-1.88,.71-3.85,1.42-5.57,2.46C1,10.87-.26,12.12,.05,13.77c.28,1.47,1.67,2.51,2.89,3.21,1.69,.97,3.55,1.52,5.43,1.98,4.48,1.09,9.04,1.81,13.61,2.36,9.43,1.13,18.93,1.73,28.41,2.2,9.63,.48,19.27,.7,28.91,.68,8.77-.02,17.64-.04,26.32-1.47,4-.66,7.97-1.65,11.71-3.23,1.83-.77,3.65-1.63,5.22-2.85,1.3-1.02,2.66-2.48,2.59-4.25-.06-1.72-1.41-2.96-2.79-3.79-1.73-1.04-3.73-1.7-5.65-2.29-4.21-1.29-8.57-2.01-12.93-2.53-4.42-.53-8.86-.85-13.3-1.2-4.37-.34-8.74-.64-13.12-.87-8.75-.46-17.52-.64-26.28-.19-8.47,.43-16.94,1.45-25.18,3.46-3.88,.95-7.68,2.14-11.41,3.57-.75,.29-.42,1.5,.33,1.21,7.44-2.86,15.28-4.65,23.17-5.74,8.25-1.14,16.6-1.49,24.93-1.45,8.41,.05,16.81,.52,25.19,1.14,8.48,.63,17.14,1.04,25.43,3.08,1.98,.49,3.94,1.08,5.83,1.82,1.5,.58,3.57,1.42,4.28,3,.74,1.64-.79,3.17-1.98,4.09-1.53,1.17-3.35,2.01-5.13,2.74-7.41,3.03-15.57,3.88-23.5,4.24-8.97,.41-17.98,.34-26.95,.16-9.22-.18-18.43-.6-27.62-1.25-9.02-.64-18.13-1.29-27-3.15-1.97-.41-3.99-.82-5.88-1.53-1.44-.54-3.23-1.33-4.08-2.68-.96-1.52,.61-2.7,1.84-3.36,1.74-.93,3.62-1.65,5.47-2.32,7.93-2.91,16.33-4.41,24.7-5.39,8.92-1.04,17.9-1.6,26.88-1.86,9.17-.27,18.35-.18,27.51,.28,8.98,.45,18.07,.97,26.89,2.84,2.09,.44,4.17,.97,6.21,1.61,1.84,.58,3.9,1.24,5.23,2.71,2.44,2.69-.39,5.98-2.61,7.67-3.12,2.38-7.07,3.6-10.82,4.55-4.15,1.06-8.4,1.67-12.66,2.1-9.01,.9-18.09,1.23-27.14,1.38-9.23,.16-18.46,.05-27.68-.15-9.12-.2-18.35-.23-27.4-1.54-3.77-.55-7.86-1.15-11.19-3.12-1.32-.79-2.62-1.91-2.94-3.49-.3-1.46,.41-2.81,1.41-3.82,2.37-2.39,5.94-3.59,9.12-4.44,.04-.01,.02-.07-.02-.06h0Z"/></g></svg>