<?xml version="1.0" encoding="UTF-8"?><svg id="Layer_2" xmlns="http://www.w3.org/2000/svg" viewBox="0 0 423.97 423.97"><defs><style>.cls-1{fill:none;}.cls-2{fill:#fff;}</style></defs><g id="Layer_1-2"><g><circle class="cls-1" cx="211.98" cy="211.98" r="211.98"/><g><g><path class="cls-2" d="M5,181.27l2.66-9.6,50.9,9.22-48.31-18.55,3.01-10.87,50.97,8.95-48.39-18.28,2.38-8.61,61.63,23.99-3.44,12.41-44.85-7.45,42.29,16.69-3.66,13.23L5,181.27Z"/><path class="cls-2" d="M86.85,121.36l-6.71,9.87,9.65,8.72-5.39,7.93-48.4-45.85,7.87-11.58,60.44,28.13-5.81,8.55-11.65-5.76Zm-8.13-3.93l-30.09-14.77,24.85,22.46,5.23-7.7Z"/><path class="cls-2" d="M77.45,66.93l-8.14,7.12-6.19-7.08,24.06-21.04,6.19,7.08-8.14,7.12,37.13,42.45-7.78,6.81-37.13-42.45Z"/><path class="cls-2" d="M130.96,77.28l-15.22-31.9c-4.37-9.16-2.21-16.86,6.78-21.15,8.99-4.29,16.33-1.13,20.71,8.03l3,6.28-8.82,4.21-3.28-6.87c-1.86-3.9-4.5-4.62-7.3-3.29-2.8,1.34-3.9,3.84-2.04,7.74l15.83,33.17c1.86,3.9,4.46,4.54,7.26,3.2s3.94-3.75,2.08-7.66l-4.13-8.65,8.82-4.21,3.81,7.98c4.37,9.16,2.21,16.86-6.78,21.15-8.99,4.29-16.33,1.13-20.71-8.03Z"/><path class="cls-2" d="M164.47,9.92l10.22-1.57,4.07,26.48,10.96-1.69-4.07-26.48,10.22-1.57,10,65.04-10.22,1.57-4.5-29.27-10.96,1.69,4.5,29.27-10.22,1.57-10-65.04Z"/><path class="cls-2" d="M257.15,9.3l9.97,3.07-8.66,51.43,21.77-47.39,9.07,2.79-28.89,59.96-13.12-4.04,9.84-65.82Z"/><path class="cls-2" d="M312.45,30.86l8.92,5.23-33.25,56.78-8.92-5.22,33.25-56.78Z"/><path class="cls-2" d="M345.01,52.48l11.39,10.94c7.46,7.16,7.15,14.82-.15,22.41l-23.05,24c-7.29,7.59-14.93,8.21-22.38,1.05l-11.39-10.94,45.59-47.46Zm-27.82,51.49c2.37,2.28,4.97,2.43,8.22-.96l23.71-24.68c3.26-3.39,3-5.98,.63-8.26l-3.8-3.65-32.56,33.9,3.8,3.65Z"/><path class="cls-2" d="M385.41,97.57l14.15,24.39-8.13,4.72-8.96-15.45-15.04,8.72,7.12,12.28-8.13,4.71-7.12-12.28-17.48,10.14,8.96,15.45-8.13,4.71-14.14-24.39,56.92-33Z"/><path class="cls-2" d="M361.22,159.48l33.57-8.37c10.22-2.55,17.4,1.38,19.85,11.23,2.46,9.85-2.04,16.69-12.26,19.23l-33.57,8.37c-10.22,2.55-17.4-1.38-19.85-11.23-2.46-9.85,2.04-16.69,12.26-19.23Zm4.45,20.59l34.84-8.68c4.56-1.14,5.79-3.58,5-6.77-.8-3.19-3.03-4.77-7.59-3.63l-34.84,8.69c-4.56,1.14-5.79,3.58-5,6.77,.8,3.19,3.03,4.77,7.59,3.63Z"/></g><path class="cls-1" d="M386.98,211.98c0,96.65-78.35,175-175,175S36.98,308.63,36.98,211.98"/></g></g></g></svg>